<?xml version="1.0" encoding="UTF-8"?>
<!DOCTYPE svg PUBLIC "-//W3C//DTD SVG 1.1//EN" "http://www.w3.org/Graphics/SVG/1.1/DTD/svg11.dtd">
<!-- Creator: CorelDRAW X7 -->
<svg xmlns="http://www.w3.org/2000/svg" xml:space="preserve" width="4.69703in" height="0.813169in" version="1.1" style="shape-rendering:geometricPrecision; text-rendering:geometricPrecision; image-rendering:optimizeQuality; fill-rule:evenodd; clip-rule:evenodd"
viewBox="0 0 2586 448"
 xmlns:xlink="http://www.w3.org/1999/xlink">
 <defs>
  <style type="text/css">
   <![CDATA[
    .fil3 {fill:#FEFEFE}
    .fil2 {fill:#ED2F59}
    .fil1 {fill:#96989A;fill-rule:nonzero}
    .fil0 {fill:#373435;fill-rule:nonzero}
   ]]>
  </style>
 </defs>
 <g id="Layer_x0020_1">
  <metadata id="CorelCorpID_0Corel-Layer"/>
  <polygon class="fil0" points="691,116 691,116 649,231 629,231 587,117 587,117 590,185 590,209 606,212 606,231 542,231 542,212 559,209 559,98 542,95 542,76 559,76 599,76 639,190 639,190 679,76 736,76 736,95 719,98 719,209 736,212 736,231 672,231 672,212 688,209 688,185 "/>
  <path id="1" class="fil0" d="M828 216c-4,6 -8,10 -13,13 -6,3 -12,4 -19,4 -12,0 -22,-4 -28,-12 -7,-7 -11,-19 -11,-36l0 -47 -12 -3 0 -19 12 0 31 0 0 69c0,9 2,15 4,18 3,4 7,6 13,6 5,0 9,-1 13,-2 3,-2 6,-4 8,-7l0 -62 -13 -3 0 -19 13 0 31 0 0 93 14 3 0 19 -41 0 -2 -15z"/>
  <path id="2" class="fil0" d="M882 212l15 -3 0 -122 -17 -3 0 -19 48 0 0 66c3,-6 8,-10 13,-13 5,-3 11,-4 17,-4 12,0 22,4 29,12 6,8 10,20 10,37l0 46 15 3 0 19 -59 0 0 -19 13 -3 0 -47c0,-8 -2,-15 -5,-19 -3,-3 -8,-5 -14,-5 -4,0 -8,1 -11,2 -3,2 -6,4 -8,7l0 62 13 3 0 19 -59 0 0 -19z"/>
  <path id="3" class="fil0" d="M1095 231c-1,-2 -2,-4 -2,-6 -1,-2 -1,-4 -2,-6 -3,4 -8,8 -13,10 -6,3 -12,4 -18,4 -12,0 -21,-3 -27,-9 -7,-6 -10,-15 -10,-25 0,-11 4,-19 13,-25 9,-6 21,-9 38,-9l16 0 0 -11c0,-6 -2,-10 -5,-13 -3,-3 -8,-5 -14,-5 -4,0 -7,1 -10,2 -2,0 -5,1 -6,3l-2 12 -24 0 0 -26c6,-3 13,-7 20,-9 7,-3 15,-4 24,-4 14,0 26,3 34,10 9,7 14,17 14,30l0 48c0,1 0,3 0,5 0,1 0,3 0,4l10 1 0 19 -36 0zm-27 -21c5,0 9,-1 13,-3 4,-2 7,-4 9,-7l0 -18 -16 0c-7,0 -12,2 -15,5 -3,3 -5,6 -5,11 0,4 1,7 4,9 2,2 6,3 10,3z"/>
  <path id="4" class="fil0" d="M1138 135l0 -19 45 0 1 15c4,-5 9,-10 14,-13 6,-3 12,-4 19,-4 8,0 14,1 19,5 5,3 9,8 12,14 4,-6 8,-11 14,-14 6,-3 12,-5 20,-5 11,0 20,4 27,12 6,7 10,19 10,35l0 48 15 3 0 19 -60 0 0 -19 14 -3 0 -48c0,-9 -2,-15 -5,-18 -3,-3 -7,-5 -12,-5 -5,0 -9,1 -12,3 -3,2 -6,4 -7,8 0,1 0,2 0,3 0,1 0,2 0,3l0 54 12 3 0 19 -56 0 0 -19 13 -3 0 -48c0,-8 -2,-14 -4,-18 -3,-3 -7,-5 -13,-5 -4,0 -8,1 -11,2 -3,2 -6,4 -8,7l0 62 13 3 0 19 -59 0 0 -19 15 -3 0 -71 -16 -3z"/>
  <path id="5" class="fil0" d="M1340 135l0 -19 45 0 2 15c3,-5 8,-10 13,-13 6,-3 12,-4 20,-4 7,0 13,1 19,5 5,3 9,8 11,14 4,-6 9,-11 14,-14 6,-3 13,-5 20,-5 12,0 20,4 27,12 7,7 10,19 10,35l0 48 15 3 0 19 -60 0 0 -19 14 -3 0 -48c0,-9 -2,-15 -4,-18 -3,-3 -7,-5 -13,-5 -4,0 -8,1 -11,3 -4,2 -6,4 -8,8 0,1 0,2 0,3 0,1 0,2 0,3l0 54 13 3 0 19 -56 0 0 -19 12 -3 0 -48c0,-8 -1,-14 -4,-18 -3,-3 -7,-5 -13,-5 -4,0 -8,1 -11,2 -3,2 -6,4 -8,7l0 62 14 3 0 19 -60 0 0 -19 15 -3 0 -71 -16 -3z"/>
  <path id="6" class="fil0" d="M1619 231c-1,-2 -2,-4 -2,-6 -1,-2 -1,-4 -2,-6 -3,4 -8,8 -13,10 -5,3 -11,4 -18,4 -12,0 -20,-3 -27,-9 -7,-6 -10,-15 -10,-25 0,-11 4,-19 13,-25 9,-6 21,-9 38,-9l16 0 0 -11c0,-6 -2,-10 -5,-13 -3,-3 -8,-5 -14,-5 -4,0 -7,1 -10,2 -2,0 -5,1 -6,3l-2 12 -24 0 0 -26c6,-3 13,-7 20,-9 7,-3 15,-4 24,-4 14,0 26,3 35,10 8,7 13,17 13,30l0 48c0,1 0,3 0,5 0,1 0,3 0,4l10 1 0 19 -36 0zm-27 -21c5,0 9,-1 13,-3 4,-2 7,-4 9,-7l0 -18 -16 0c-7,0 -12,2 -15,5 -3,3 -5,6 -5,11 0,4 1,7 4,9 2,2 6,3 10,3z"/>
  <path id="7" class="fil0" d="M1740 217c-4,5 -8,9 -13,12 -5,3 -10,4 -17,4 -14,0 -25,-5 -33,-15 -7,-11 -11,-24 -11,-41l0 -3c0,-18 4,-32 11,-44 8,-11 19,-16 34,-16 5,0 11,1 15,4 5,2 9,6 12,10l0 -41 -16 -3 0 -19 16 0 31 0 0 144 15 3 0 19 -42 0 -2 -14zm-43 -40c0,10 1,18 5,23 3,6 9,9 16,9 5,0 9,-1 12,-3 3,-2 6,-4 8,-8l0 -49c-2,-3 -5,-6 -8,-8 -3,-2 -7,-3 -12,-3 -7,0 -13,3 -16,10 -4,7 -5,16 -5,26l0 3z"/>
  <path id="8" class="fil0" d="M1845 212l11 -1 47 -135 32 0 47 135 11 1 0 19 -53 0 0 -19 11 -2 -7 -21 -50 0 -7 21 11 2 0 19 -53 0 0 -19zm56 -46l36 0 -18 -54 -1 0 -17 54z"/>
  <path id="9" class="fil0" d="M2006 212l15 -3 0 -71 -17 -3 0 -19 46 0 1 17c3,-6 6,-11 10,-14 5,-4 10,-5 15,-5 2,0 4,0 5,0 2,0 4,1 5,1l-3 28 -13 0c-5,0 -8,1 -11,3 -3,1 -6,4 -7,7l0 56 15 3 0 19 -61 0 0 -19z"/>
  <path id="10" class="fil0" d="M2088 212l15 -3 0 -122 -17 -3 0 -19 48 0 0 66c4,-6 8,-10 13,-13 5,-3 11,-4 18,-4 12,0 21,4 28,12 7,8 10,20 10,37l0 46 15 3 0 19 -59 0 0 -19 13 -3 0 -47c0,-8 -1,-15 -5,-19 -3,-3 -7,-5 -14,-5 -4,0 -8,1 -11,2 -3,2 -6,4 -8,7l0 62 13 3 0 19 -59 0 0 -19z"/>
  <path id="11" class="fil0" d="M2301 231c-1,-2 -1,-4 -2,-6 -1,-2 -1,-4 -2,-6 -3,4 -8,8 -13,10 -5,3 -11,4 -18,4 -11,0 -20,-3 -27,-9 -6,-6 -10,-15 -10,-25 0,-11 5,-19 13,-25 9,-6 21,-9 38,-9l16 0 0 -11c0,-6 -2,-10 -5,-13 -3,-3 -8,-5 -14,-5 -3,0 -7,1 -9,2 -3,0 -5,1 -7,3l-2 12 -23 0 0 -26c5,-3 12,-7 19,-9 7,-3 15,-4 24,-4 14,0 26,3 35,10 9,7 13,17 13,30l0 48c0,1 0,3 0,5 0,1 0,3 1,4l9 1 0 19 -36 0zm-27 -21c5,0 9,-1 13,-3 4,-2 7,-4 9,-7l0 -18 -16 0c-6,0 -11,2 -15,5 -3,3 -5,6 -5,11 0,4 1,7 4,9 2,2 6,3 10,3z"/>
  <path id="12" class="fil0" d="M2344 135l0 -19 45 0 2 15c3,-5 8,-10 13,-13 6,-3 12,-4 20,-4 7,0 13,1 19,5 5,3 9,8 11,14 4,-6 9,-11 14,-14 6,-3 13,-5 20,-5 12,0 20,4 27,12 7,7 10,19 10,35l0 48 15 3 0 19 -60 0 0 -19 14 -3 0 -48c0,-9 -2,-15 -4,-18 -3,-3 -7,-5 -13,-5 -4,0 -8,1 -11,3 -4,2 -6,4 -8,8 0,1 0,2 0,3 0,1 0,2 0,3l0 54 13 3 0 19 -56 0 0 -19 12 -3 0 -48c0,-8 -1,-14 -4,-18 -3,-3 -7,-5 -13,-5 -4,0 -8,1 -11,2 -3,2 -6,4 -8,7l0 62 14 3 0 19 -60 0 0 -19 15 -3 0 -71 -16 -3z"/>
  <path class="fil1" d="M571 400c-9,0 -17,-3 -22,-10 -6,-6 -9,-14 -9,-24l0 -3c0,-10 3,-18 9,-24 6,-6 13,-10 20,-10 10,0 16,3 21,9 5,5 7,13 7,22l0 7 -44 0 0 1c0,6 2,12 5,16 3,4 8,6 13,6 4,0 8,0 11,-2 3,-1 6,-3 8,-5l5 8c-2,3 -5,5 -9,6 -4,2 -9,3 -15,3zm-2 -61c-4,0 -7,2 -10,5 -3,4 -5,8 -6,13l1 1 31 0 0 -2c0,-5 -1,-9 -4,-12 -3,-3 -6,-5 -12,-5z"/>
  <path id="1" class="fil1" d="M607 391l10 -2 0 -49 -10 -1 0 -8 21 0 1 8c2,-3 5,-5 8,-7 4,-2 8,-3 12,-3 5,0 9,1 12,3 3,3 6,6 7,10 2,-4 5,-7 9,-9 3,-3 7,-4 12,-4 7,0 12,3 16,7 4,5 6,12 6,22l0 31 11 2 0 7 -33 0 0 -7 10 -2 0 -31c0,-7 -1,-12 -3,-14 -3,-3 -6,-5 -11,-5 -4,0 -7,2 -10,5 -3,3 -4,7 -5,11l0 34 11 2 0 7 -33 0 0 -7 10 -2 0 -31c0,-7 -1,-11 -3,-14 -3,-3 -6,-5 -11,-5 -3,0 -6,1 -9,3 -2,1 -4,3 -6,6l0 41 11 2 0 7 -33 0 0 -7z"/>
  <path id="2" class="fil1" d="M775 398c0,-1 -1,-3 -1,-5 0,-1 0,-2 0,-4 -3,3 -6,6 -9,8 -4,2 -8,3 -12,3 -7,0 -12,-2 -16,-5 -4,-4 -5,-9 -5,-15 0,-6 2,-11 7,-15 6,-3 13,-5 22,-5l13 0 0 -8c0,-4 -2,-7 -4,-9 -3,-3 -6,-4 -11,-4 -3,0 -5,0 -8,1 -2,1 -4,2 -6,4l-1 7 -9 0 0 -14c3,-2 6,-4 11,-5 4,-2 9,-3 14,-3 8,0 14,2 19,6 5,4 7,10 7,17l0 33c0,1 0,1 0,2 0,1 0,2 0,3l5 1 0 7 -16 0zm-20 -9c4,0 8,-1 11,-3 4,-1 6,-4 8,-7l0 -11 -14 0c-5,0 -9,1 -12,4 -3,2 -4,5 -4,8 0,3 1,5 3,7 2,2 4,2 8,2z"/>
  <path id="3" class="fil1" d="M801 391l11 -2 0 -49 -11 -1 0 -8 23 0 0 58 10 2 0 7 -33 0 0 -7zm23 -78l-12 0 0 -12 12 0 0 12z"/>
  <polygon id="4" class="fil1" points="842,309 842,301 864,301 864,389 875,391 875,398 842,398 842,391 852,389 852,310 "/>
  <path id="5" class="fil1" d="M913 391l11 -2 0 -49 -11 -1 0 -8 22 0 1 8c2,-3 5,-5 8,-7 3,-2 7,-3 12,-3 4,0 8,1 12,3 3,3 5,6 7,10 2,-4 5,-7 8,-9 4,-3 8,-4 13,-4 7,0 12,3 16,7 4,5 6,12 6,22l0 31 10 2 0 7 -33 0 0 -7 11 -2 0 -31c0,-7 -2,-12 -4,-14 -2,-3 -6,-5 -10,-5 -4,0 -8,2 -10,5 -3,3 -5,7 -5,11l0 34 10 2 0 7 -33 0 0 -7 11 -2 0 -31c0,-7 -1,-11 -4,-14 -2,-3 -6,-5 -10,-5 -4,0 -7,1 -9,3 -3,1 -5,3 -6,6l0 41 10 2 0 7 -33 0 0 -7z"/>
  <path id="6" class="fil1" d="M1068 400c-10,0 -17,-3 -23,-10 -6,-6 -8,-14 -8,-24l0 -3c0,-10 3,-18 8,-24 6,-6 13,-10 21,-10 9,0 16,3 20,9 5,5 7,13 7,22l0 7 -44 0 0 1c0,6 2,12 5,16 3,4 8,6 14,6 4,0 7,0 11,-2 3,-1 5,-3 8,-5l5 8c-3,3 -6,5 -10,6 -4,2 -9,3 -14,3zm-2 -61c-4,0 -8,2 -11,5 -3,4 -5,8 -5,13l0 1 31 0 0 -2c0,-5 -1,-9 -4,-12 -2,-3 -6,-5 -11,-5z"/>
  <path id="7" class="fil1" d="M1153 398l-12 0 0 -12 12 0 0 12zm0 -55l-12 0 0 -12 12 0 0 12z"/>
  <path id="8" class="fil1" d="M1240 398c0,-1 -1,-3 -1,-5 0,-1 0,-2 0,-4 -3,3 -6,6 -9,8 -4,2 -8,3 -12,3 -7,0 -12,-2 -16,-5 -4,-4 -5,-9 -5,-15 0,-6 2,-11 7,-15 6,-3 13,-5 22,-5l13 0 0 -8c0,-4 -2,-7 -4,-9 -3,-3 -6,-4 -11,-4 -3,0 -5,0 -8,1 -2,1 -4,2 -6,4l-1 7 -9 0 0 -14c3,-2 6,-4 11,-5 4,-2 9,-3 14,-3 8,0 14,2 19,6 5,4 7,10 7,17l0 33c0,1 0,1 0,2 0,1 0,2 0,3l5 1 0 7 -16 0zm-20 -9c4,0 8,-1 11,-3 4,-1 6,-4 8,-7l0 -11 -14 0c-5,0 -9,1 -12,4 -3,2 -4,5 -4,8 0,3 1,5 3,7 2,2 4,2 8,2z"/>
  <path id="9" class="fil1" d="M1266 339l0 -8 22 0 1 9c2,-3 4,-6 7,-8 3,-2 6,-3 10,-3 1,0 2,0 3,1 1,0 1,0 2,0l-2 12 -7 -1c-3,0 -6,1 -8,2 -2,2 -4,4 -5,7l0 39 10 2 0 7 -33 0 0 -7 11 -2 0 -49 -11 -1z"/>
  <path id="10" class="fil1" d="M1317 391l10 -2 0 -79 -10 -1 0 -8 22 0 0 39c2,-4 5,-6 9,-8 3,-2 7,-3 11,-3 7,0 13,3 17,7 4,4 6,11 6,20l0 33 10 2 0 7 -33 0 0 -7 11 -2 0 -33c0,-6 -2,-10 -4,-13 -2,-2 -6,-4 -11,-4 -3,0 -6,1 -9,3 -3,1 -5,4 -7,6l0 41 10 2 0 7 -32 0 0 -7z"/>
  <path id="11" class="fil1" d="M1445 398c0,-1 0,-3 0,-5 -1,-1 -1,-2 -1,-4 -2,3 -5,6 -9,8 -3,2 -7,3 -11,3 -7,0 -13,-2 -16,-5 -4,-4 -6,-9 -6,-15 0,-6 3,-11 8,-15 5,-3 12,-5 21,-5l13 0 0 -8c0,-4 -1,-7 -4,-9 -2,-3 -6,-4 -10,-4 -3,0 -6,0 -8,1 -3,1 -5,2 -6,4l-1 7 -10 0 0 -14c3,-2 7,-4 11,-5 5,-2 9,-3 15,-3 7,0 13,2 18,6 5,4 7,10 7,17l0 33c0,1 0,1 0,2 0,1 0,2 1,3l5 1 0 7 -17 0zm-20 -9c5,0 8,-1 12,-3 3,-1 6,-4 7,-7l0 -11 -13 0c-5,0 -9,1 -12,4 -3,2 -5,5 -5,8 0,3 1,5 3,7 2,2 5,2 8,2z"/>
  <path id="12" class="fil1" d="M1469 391l11 -2 0 -49 -11 -1 0 -8 22 0 1 8c2,-3 4,-5 8,-7 3,-2 7,-3 12,-3 4,0 8,1 11,3 4,3 6,6 8,10 2,-4 5,-7 8,-9 4,-3 8,-4 13,-4 6,0 12,3 16,7 4,5 6,12 6,22l0 31 10 2 0 7 -33 0 0 -7 11 -2 0 -31c0,-7 -2,-12 -4,-14 -2,-3 -6,-5 -10,-5 -4,0 -8,2 -10,5 -3,3 -5,7 -5,11l0 34 10 2 0 7 -33 0 0 -7 11 -2 0 -31c0,-7 -2,-11 -4,-14 -2,-3 -6,-5 -10,-5 -4,0 -7,1 -9,3 -3,1 -5,3 -6,6l0 41 10 2 0 7 -33 0 0 -7z"/>
  <path id="13" class="fil1" d="M1658 339l-7 1 -25 69c-2,4 -5,8 -8,12 -3,3 -7,5 -13,5 -1,0 -2,0 -3,-1 -2,0 -3,0 -4,0l1 -10c0,0 1,0 2,0 2,0 3,0 4,0 2,0 4,-1 6,-3 2,-2 3,-5 4,-8l3 -7 -22 -57 -6 -1 0 -8 27 0 0 8 -8 1 12 33 2 9 1 0 14 -42 -8 -1 0 -8 28 0 0 8z"/>
  <path id="14" class="fil1" d="M1664 391l10 -2 0 -49 -10 -1 0 -8 21 0 1 8c2,-3 5,-5 8,-7 3,-2 7,-3 12,-3 4,0 8,1 12,3 3,3 5,6 7,10 2,-4 5,-7 8,-9 4,-3 8,-4 13,-4 7,0 12,3 16,7 4,5 6,12 6,22l0 31 10 2 0 7 -33 0 0 -7 11 -2 0 -31c0,-7 -1,-12 -4,-14 -2,-3 -5,-5 -10,-5 -4,0 -8,2 -10,5 -3,3 -4,7 -5,11l0 34 10 2 0 7 -32 0 0 -7 10 -2 0 -31c0,-7 -1,-11 -4,-14 -2,-3 -6,-5 -10,-5 -4,0 -7,1 -9,3 -3,1 -5,3 -6,6l0 41 10 2 0 7 -32 0 0 -7z"/>
  <path id="15" class="fil1" d="M1787 339l0 -8 22 0 1 9c2,-3 4,-6 7,-8 3,-2 6,-3 10,-3 0,0 1,0 2,1 2,0 2,0 3,0l-2 12 -7 -1c-3,0 -6,1 -8,2 -2,2 -4,4 -5,7l0 39 10 2 0 7 -33 0 0 -7 10 -2 0 -49 -10 -1z"/>
  <path id="16" class="fil1" d="M1942 367c-1,9 -3,17 -8,23 -5,7 -12,10 -21,10 -3,0 -5,-1 -8,-3 -2,-2 -4,-4 -4,-7 -3,3 -5,6 -8,7 -3,2 -7,3 -11,3 -5,0 -9,-3 -12,-8 -3,-5 -4,-11 -3,-20 1,-10 4,-19 9,-26 4,-6 10,-10 17,-10 5,0 8,1 11,2 2,1 5,3 8,5l0 0 1 0 -4 37c0,5 1,8 2,10 1,1 3,2 5,2 5,0 9,-2 12,-7 3,-5 5,-11 5,-18 1,-16 -2,-28 -9,-37 -6,-9 -17,-14 -31,-14 -13,0 -23,5 -31,15 -8,9 -12,22 -12,37 -1,16 2,29 9,38 7,9 17,13 30,13 4,0 8,0 11,-1 4,-1 7,-2 10,-3l2 6c-3,2 -6,3 -10,4 -5,1 -9,2 -13,2 -16,0 -28,-5 -37,-16 -9,-10 -13,-24 -12,-43 1,-17 6,-32 16,-43 9,-11 22,-16 38,-16 15,0 27,5 36,15 8,11 12,25 12,43zm-64 5c0,6 0,11 1,14 2,3 4,5 7,5 3,0 5,-1 7,-2 3,-1 5,-3 7,-6 0,0 0,-1 0,-1 0,-1 0,-1 0,-2l3 -34c-1,0 -3,-1 -4,-1 -1,0 -2,0 -3,0 -6,0 -10,2 -12,7 -3,4 -5,11 -6,20z"/>
  <path id="17" class="fil1" d="M1955 366c0,-11 2,-20 7,-27 4,-6 11,-10 19,-10 5,0 8,1 12,3 3,2 6,4 8,7l1 -8 10 0 0 67c0,8 -2,15 -7,20 -5,5 -12,8 -21,8 -3,0 -7,-1 -11,-2 -3,0 -7,-2 -10,-3l4 -10c2,1 5,2 8,3 3,1 6,1 9,1 5,0 10,-1 12,-4 3,-3 4,-8 4,-13l0 -7c-2,3 -5,5 -8,7 -3,1 -7,2 -11,2 -8,0 -15,-3 -19,-9 -5,-6 -7,-14 -7,-24l0 -1zm12 1c0,7 1,12 4,17 3,4 8,6 13,6 4,0 7,-1 10,-3 2,-2 4,-4 6,-7l0 -31c-2,-3 -4,-5 -6,-7 -3,-2 -6,-3 -9,-3 -6,0 -11,3 -14,8 -3,5 -4,11 -4,19l0 1z"/>
  <path id="18" class="fil1" d="M2025 391l10 -2 0 -49 -10 -1 0 -8 21 0 1 8c2,-3 5,-5 8,-7 4,-2 8,-3 12,-3 5,0 9,1 12,3 3,3 5,6 7,10 2,-4 5,-7 9,-9 3,-3 7,-4 12,-4 7,0 12,3 16,7 4,5 6,12 6,22l0 31 10 2 0 7 -32 0 0 -7 10 -2 0 -31c0,-7 -1,-12 -4,-14 -2,-3 -5,-5 -10,-5 -4,0 -8,2 -10,5 -3,3 -4,7 -5,11l0 34 10 2 0 7 -32 0 0 -7 10 -2 0 -31c0,-7 -1,-11 -4,-14 -2,-3 -5,-5 -10,-5 -4,0 -7,1 -9,3 -3,1 -4,3 -6,6l0 41 11 2 0 7 -33 0 0 -7z"/>
  <path id="19" class="fil1" d="M2193 398c-1,-1 -1,-3 -1,-5 0,-1 -1,-2 -1,-4 -2,3 -5,6 -9,8 -3,2 -7,3 -11,3 -7,0 -12,-2 -16,-5 -4,-4 -6,-9 -6,-15 0,-6 3,-11 8,-15 5,-3 13,-5 22,-5l12 0 0 -8c0,-4 -1,-7 -3,-9 -3,-3 -6,-4 -11,-4 -3,0 -6,0 -8,1 -2,1 -4,2 -6,4l-1 7 -10 0 0 -14c3,-2 7,-4 12,-5 4,-2 9,-3 14,-3 8,0 14,2 19,6 4,4 7,10 7,17l0 33c0,1 0,1 0,2 0,1 0,2 0,3l5 1 0 7 -16 0zm-20 -9c4,0 8,-1 11,-3 3,-1 6,-4 7,-7l0 -11 -13 0c-5,0 -9,1 -12,4 -3,2 -4,5 -4,8 0,3 1,5 3,7 1,2 4,2 8,2z"/>
  <path id="20" class="fil1" d="M2219 391l10 -2 0 -49 -10 -1 0 -8 23 0 0 58 10 2 0 7 -33 0 0 -7zm23 -78l-13 0 0 -12 13 0 0 12z"/>
  <polygon id="21" class="fil1" points="2260,309 2260,301 2282,301 2282,389 2292,391 2292,398 2260,398 2260,391 2270,389 2270,310 "/>
  <polygon id="22" class="fil1" points="2318,398 2305,398 2305,386 2318,386 "/>
  <path id="23" class="fil1" d="M2363 390c4,0 8,-1 11,-4 3,-2 5,-5 5,-9l11 0 0 0c0,6 -3,11 -8,16 -5,4 -12,7 -19,7 -10,0 -17,-3 -22,-10 -6,-6 -8,-14 -8,-24l0 -3c0,-9 2,-18 8,-24 5,-6 12,-10 22,-10 6,0 10,1 15,3 4,2 8,4 11,7l0 15 -10 0 -2 -10c-2,-2 -4,-3 -6,-4 -2,0 -5,-1 -8,-1 -6,0 -11,2 -14,7 -2,5 -4,10 -4,17l0 3c0,7 1,13 4,17 3,5 8,7 14,7z"/>
  <path id="24" class="fil1" d="M2402 364c0,-10 3,-18 8,-25 6,-6 13,-10 22,-10 10,0 17,4 22,10 6,7 9,15 9,25l0 1c0,10 -3,19 -9,25 -5,7 -12,10 -22,10 -9,0 -16,-3 -22,-10 -5,-6 -8,-15 -8,-25l0 -1zm12 1c0,7 2,13 5,18 3,5 7,7 13,7 6,0 11,-2 14,-7 3,-5 4,-11 4,-18l0 -1c0,-7 -1,-13 -4,-18 -3,-5 -8,-7 -14,-7 -6,0 -10,2 -13,7 -3,5 -5,11 -5,18l0 1z"/>
  <path id="25" class="fil1" d="M2471 391l11 -2 0 -49 -11 -1 0 -8 22 0 1 8c2,-3 5,-5 8,-7 3,-2 7,-3 12,-3 4,0 8,1 12,3 3,3 5,6 7,10 2,-4 5,-7 8,-9 4,-3 8,-4 13,-4 7,0 12,3 16,7 4,5 6,12 6,22l0 31 10 2 0 7 -33 0 0 -7 11 -2 0 -31c0,-7 -2,-12 -4,-14 -2,-3 -6,-5 -10,-5 -4,0 -8,2 -10,5 -3,3 -5,7 -5,11l0 34 10 2 0 7 -33 0 0 -7 11 -2 0 -31c0,-7 -1,-11 -4,-14 -2,-3 -6,-5 -10,-5 -4,0 -7,1 -9,3 -3,1 -5,3 -6,6l0 41 10 2 0 7 -33 0 0 -7z"/>
  <circle class="fil2" cx="224" cy="224" r="224"/>
  <path class="fil3" d="M241 153l35 0 0 27 41 0 0 50 -1 0 0 116 -51 0 0 -42 -59 0 0 22 -22 0 0 19 -53 0 0 -157 27 0 0 -4 0 -32 -26 0 0 -50 35 0 0 15 36 0 0 16 38 0 0 20zm-57 35l0 38 0 21 22 0 0 20 59 0 0 -54 -25 0 0 -22 -47 0 0 -7 -9 0 0 4z"/>
 </g>
</svg>
