<?xml version="1.0" encoding="UTF-8"?>
<!DOCTYPE svg PUBLIC "-//W3C//DTD SVG 1.1//EN" "http://www.w3.org/Graphics/SVG/1.1/DTD/svg11.dtd">
<!-- Creator: CorelDRAW X7 -->
<svg xmlns="http://www.w3.org/2000/svg" xml:space="preserve" width="3.89704in" height="0.520413in" version="1.1" style="shape-rendering:geometricPrecision; text-rendering:geometricPrecision; image-rendering:optimizeQuality; fill-rule:evenodd; clip-rule:evenodd"
viewBox="0 0 1565 209"
 xmlns:xlink="http://www.w3.org/1999/xlink">
 <defs>
  <style type="text/css">
   <![CDATA[
    .fil0 {fill:#373435}
    .fil1 {fill:#373435;fill-rule:nonzero}
   ]]>
  </style>
 </defs>
 <g id="Layer_x0020_1">
  <metadata id="CorelCorpID_0Corel-Layer"/>
  <path class="fil0" d="M603 161c0,4 -1,7 -3,10 -1,2 -4,4 -8,4 -1,0 -2,-1 -3,-1 -1,-1 -2,-2 -2,-3 -1,1 -2,2 -3,3 -1,0 -3,1 -4,1 -2,0 -4,-1 -5,-3 -1,-2 -2,-5 -2,-8 1,-5 2,-8 4,-11 2,-3 4,-4 7,-4 2,0 3,0 4,1 1,0 2,1 4,2l0 0 0 0 -1 15c-1,2 0,3 0,4 1,0 1,1 2,1 2,0 4,-1 5,-3 1,-2 2,-5 2,-8 0,-6 -1,-11 -3,-15 -3,-3 -7,-5 -13,-5 -5,0 -9,2 -13,6 -3,4 -4,9 -5,15 0,6 1,11 4,15 3,4 7,6 12,6 2,0 3,-1 5,-1 1,0 3,-1 4,-1l1 2c-1,1 -3,2 -5,2 -1,0 -3,1 -5,1 -6,0 -11,-3 -15,-7 -3,-4 -5,-10 -4,-17 0,-7 2,-13 6,-17 4,-5 9,-7 15,-7 6,0 11,2 15,6 3,4 5,10 4,17zm-25 3c0,2 0,4 0,5 1,1 2,2 3,2 1,0 2,0 3,-1 1,0 2,-1 3,-2 0,0 0,0 0,-1 0,0 0,0 0,0l1 -14c-1,0 -1,0 -2,0 0,-1 -1,-1 -1,-1 -2,0 -4,1 -5,3 -1,2 -2,5 -2,9zm49 10c-1,-1 -1,-1 -1,-2 0,-1 0,-1 0,-2 -1,2 -2,3 -4,3 -1,1 -3,2 -4,2 -3,0 -5,-1 -7,-2 -1,-2 -2,-4 -2,-6 0,-3 1,-5 3,-6 2,-2 5,-2 9,-2l5 0 0 -4c0,-1 -1,-3 -2,-3 -1,-1 -2,-2 -4,-2 -1,0 -2,0 -3,1 -1,0 -2,0 -2,1l-1 3 -4 0 0 -5c2,-1 3,-2 5,-3 2,0 3,-1 6,-1 3,0 5,1 7,3 2,1 3,3 3,6l0 14c0,0 0,0 0,1 0,0 0,0 0,1l2 0 0 3 -6 0zm-8 -4c1,0 3,0 4,-1 1,-1 2,-1 3,-3l0 -4 -5 0c-2,0 -4,0 -5,1 -1,1 -2,2 -2,4 0,1 0,2 1,2 1,1 2,1 4,1zm18 -20l0 -3 9 0 0 4c1,-2 2,-3 3,-4 1,0 3,-1 4,-1 0,0 1,0 1,0 1,0 1,0 1,1l0 4 -3 0c-2,0 -3,0 -4,1 -1,1 -1,1 -2,2l0 16 4 1 0 3 -13 0 0 -3 4 -1 0 -19 -4 -1zm20 21l5 -1 0 -31 -5 -1 0 -3 10 0 0 15c0,-1 2,-2 3,-3 1,0 3,-1 5,-1 2,0 5,1 6,3 2,2 3,4 3,8l0 13 4 1 0 3 -13 0 0 -3 4 -1 0 -13c0,-2 -1,-4 -2,-5 -1,-1 -2,-2 -4,-2 -1,0 -3,1 -4,1 -1,1 -2,2 -2,3l0 16 4 1 0 3 -14 0 0 -3zm52 3c0,-1 0,-1 0,-2 0,-1 0,-1 0,-2 -1,2 -2,3 -4,3 -1,1 -3,2 -4,2 -3,0 -5,-1 -7,-2 -1,-2 -2,-4 -2,-6 0,-3 1,-5 3,-6 2,-2 5,-2 9,-2l5 0 0 -4c0,-1 -1,-3 -2,-3 -1,-1 -2,-2 -4,-2 -1,0 -2,0 -3,1 -1,0 -2,0 -3,1l0 3 -4 0 0 -5c1,-1 3,-2 5,-3 1,0 3,-1 5,-1 3,0 6,1 8,3 2,1 3,3 3,6l0 14c0,0 0,0 0,1 0,0 0,0 0,1l2 0 0 3 -7 0zm-8 -4c2,0 3,0 5,-1 1,-1 2,-1 3,-3l0 -4 -6 0c-2,0 -3,0 -4,1 -2,1 -2,2 -2,4 0,1 0,2 1,2 1,1 2,1 3,1zm18 1l4 -1 0 -19 -4 -1 0 -3 9 0 0 3c1,-1 2,-2 3,-3 2,0 3,-1 5,-1 2,0 4,1 5,1 1,1 2,3 3,4 1,-1 2,-2 3,-3 2,-1 3,-2 5,-2 3,0 5,1 7,3 1,2 2,5 2,9l0 12 4 1 0 3 -13 0 0 -3 4 -1 0 -12c0,-3 0,-5 -1,-6 -1,-1 -3,-2 -4,-2 -2,0 -3,1 -5,2 -1,1 -1,3 -1,5l0 13 4 1 0 3 -13 0 0 -3 4 -1 0 -12c0,-3 -1,-5 -2,-6 -1,-1 -2,-2 -4,-2 -1,0 -3,1 -4,1 -1,1 -1,2 -2,3l0 16 4 1 0 3 -13 0 0 -3zm76 -21l-3 0 -10 28c-1,2 -2,4 -3,5 -1,1 -3,2 -5,2 -1,0 -1,0 -2,0 0,0 -1,0 -1,0l0 -4c0,0 1,0 1,0 1,0 1,0 2,0 1,0 1,-1 2,-1 1,-1 1,-2 2,-4l1 -2 -9 -24 -2 0 0 -3 11 0 0 3 -4 0 5 14 1 3 0 0 6 -17 -3 0 0 -3 11 0 0 3zm2 21l4 -1 0 -19 -4 -1 0 -3 9 0 0 3c1,-1 2,-2 4,-3 1,0 3,-1 4,-1 2,0 4,1 5,1 1,1 2,3 3,4 1,-1 2,-2 3,-3 2,-1 3,-2 5,-2 3,0 5,1 7,3 2,2 2,5 2,9l0 12 5 1 0 3 -14 0 0 -3 4 -1 0 -12c0,-3 0,-5 -1,-6 -1,-1 -2,-2 -4,-2 -2,0 -3,1 -4,2 -1,1 -2,3 -2,5l0 13 4 1 0 3 -13 0 0 -3 4 -1 0 -12c0,-3 -1,-5 -2,-6 0,-1 -2,-2 -4,-2 -1,0 -2,1 -3,1 -1,1 -2,2 -3,3l0 16 4 1 0 3 -13 0 0 -3zm50 -21l0 -3 9 0 0 4c1,-2 2,-3 3,-4 1,0 3,-1 4,-1 0,0 1,0 1,0 1,0 1,0 1,1l-1 4 -2 0c-2,0 -3,0 -4,1 -1,1 -1,1 -2,2l0 16 4 1 0 3 -13 0 0 -3 4 -1 0 -19 -4 -1z"/>
  <path class="fil0" d="M159 161c0,4 -1,7 -3,10 -2,2 -5,4 -9,4 -1,0 -2,-1 -3,-1 -1,-1 -1,-2 -2,-3 -1,1 -2,2 -3,3 -1,0 -2,1 -4,1 -2,0 -4,-1 -5,-3 -1,-2 -1,-5 -1,-8 0,-5 1,-8 3,-11 2,-3 5,-4 7,-4 2,0 4,0 5,1 1,0 2,1 3,2l0 0 0 0 -1 15c0,2 0,3 0,4 1,0 2,1 3,1 2,0 3,-1 4,-3 2,-2 2,-5 3,-8 0,-6 -1,-11 -4,-15 -3,-3 -7,-5 -13,-5 -5,0 -9,2 -12,6 -3,4 -5,9 -5,15 -1,6 1,11 4,15 2,4 6,6 12,6 1,0 3,-1 4,-1 2,0 3,-1 4,-1l1 2c-1,1 -3,2 -4,2 -2,0 -4,1 -5,1 -7,0 -12,-3 -15,-7 -4,-4 -5,-10 -5,-17 0,-7 2,-13 6,-17 4,-5 9,-7 15,-7 7,0 12,2 15,6 4,4 5,10 5,17zm-26 3c0,2 0,4 1,5 0,1 1,2 3,2 1,0 2,0 2,-1 1,0 2,-1 3,-2 0,0 0,0 0,-1 0,0 0,0 0,0l1 -14c0,0 -1,0 -1,0 -1,-1 -1,-1 -2,-1 -2,0 -3,1 -5,3 -1,2 -1,5 -2,9zm49 10c0,-1 0,-1 0,-2 -1,-1 -1,-1 -1,-2 -1,2 -2,3 -3,3 -2,1 -3,2 -5,2 -3,0 -5,-1 -6,-2 -2,-2 -3,-4 -3,-6 0,-3 2,-5 4,-6 2,-2 5,-2 8,-2l5 0 0 -4c0,-1 0,-3 -1,-3 -1,-1 -3,-2 -4,-2 -2,0 -3,0 -4,1 -1,0 -1,0 -2,1l-1 3 -3 0 0 -5c1,-1 2,-2 4,-3 2,0 4,-1 6,-1 3,0 6,1 7,3 2,1 3,3 3,6l0 14c0,0 0,0 0,1 0,0 0,0 0,1l2 0 0 3 -6 0zm-8 -4c2,0 3,0 4,-1 2,-1 3,-1 3,-3l0 -4 -5 0c-2,0 -4,0 -5,1 -1,1 -2,2 -2,4 0,1 1,2 2,2 0,1 1,1 3,1zm19 -20l0 -3 8 0 1 4c0,-2 1,-3 3,-4 1,0 2,-1 3,-1 1,0 1,0 2,0 0,0 0,0 1,1l-1 4 -3 0c-1,0 -2,0 -3,1 -1,1 -2,1 -2,2l0 16 4 1 0 3 -13 0 0 -3 4 -1 0 -19 -4 -1zm20 21l4 -1 0 -31 -4 -1 0 -3 9 0 0 15c1,-1 2,-2 3,-3 2,0 3,-1 5,-1 3,0 5,1 7,3 1,2 2,4 2,8l0 13 4 1 0 3 -13 0 0 -3 4 -1 0 -13c0,-2 0,-4 -1,-5 -1,-1 -3,-2 -5,-2 -1,0 -2,1 -3,1 -1,1 -2,2 -3,3l0 16 4 1 0 3 -13 0 0 -3zm52 3c0,-1 -1,-1 -1,-2 0,-1 0,-1 0,-2 -1,2 -2,3 -3,3 -2,1 -3,2 -5,2 -3,0 -5,-1 -7,-2 -1,-2 -2,-4 -2,-6 0,-3 1,-5 3,-6 3,-2 5,-2 9,-2l5 0 0 -4c0,-1 0,-3 -1,-3 -1,-1 -3,-2 -5,-2 -1,0 -2,0 -3,1 -1,0 -2,0 -2,1l-1 3 -4 0 0 -5c2,-1 3,-2 5,-3 2,0 4,-1 6,-1 3,0 5,1 7,3 2,1 3,3 3,6l0 14c0,0 0,0 0,1 0,0 0,0 0,1l2 0 0 3 -6 0zm-8 -4c1,0 3,0 4,-1 2,-1 3,-1 3,-3l0 -4 -5 0c-2,0 -4,0 -5,1 -1,1 -2,2 -2,4 0,1 1,2 1,2 1,1 2,1 4,1zm17 1l5 -1 0 -19 -5 -1 0 -3 9 0 0 3c1,-1 2,-2 4,-3 1,0 3,-1 5,-1 1,0 3,1 4,1 2,1 2,3 3,4 1,-1 2,-2 4,-3 1,-1 3,-2 5,-2 2,0 5,1 6,3 2,2 3,5 3,9l0 12 4 1 0 3 -14 0 0 -3 5 -1 0 -12c0,-3 -1,-5 -2,-6 -1,-1 -2,-2 -4,-2 -2,0 -3,1 -4,2 -1,1 -2,3 -2,5l0 13 4 1 0 3 -13 0 0 -3 4 -1 0 -12c0,-3 0,-5 -1,-6 -1,-1 -3,-2 -4,-2 -2,0 -3,1 -4,1 -1,1 -2,2 -2,3l0 16 4 1 0 3 -14 0 0 -3zm76 -21l-2 0 -11 28c0,2 -1,4 -3,5 -1,1 -3,2 -5,2 0,0 -1,0 -1,0 -1,0 -1,0 -2,0l1 -4c0,0 0,0 1,0 0,0 1,0 1,0 1,0 2,-1 3,-1 0,-1 1,-2 1,-4l1 -2 -9 -24 -2 0 0 -3 11 0 0 3 -3 0 5 14 1 3 0 0 5 -17 -3 0 0 -3 11 0 0 3zm3 21l4 -1 0 -19 -4 -1 0 -3 8 0 1 3c0,-1 2,-2 3,-3 1,0 3,-1 5,-1 2,0 3,1 4,1 2,1 3,3 3,4 1,-1 2,-2 4,-3 1,-1 3,-2 5,-2 3,0 5,1 6,3 2,2 3,5 3,9l0 12 4 1 0 3 -13 0 0 -3 4 -1 0 -12c0,-3 -1,-5 -2,-6 0,-1 -2,-2 -4,-2 -1,0 -3,1 -4,2 -1,1 -2,3 -2,5l0 13 4 1 0 3 -13 0 0 -3 4 -1 0 -12c0,-3 0,-5 -1,-6 -1,-1 -2,-2 -4,-2 -2,0 -3,1 -4,1 -1,1 -2,2 -2,3l0 16 4 1 0 3 -13 0 0 -3zm50 -21l0 -3 8 0 1 4c0,-2 1,-3 2,-4 2,0 3,-1 4,-1 1,0 1,0 2,0 0,0 0,0 1,1l-1 4 -3 0c-1,0 -2,0 -3,1 -1,1 -2,1 -2,2l0 16 4 1 0 3 -13 0 0 -3 4 -1 0 -19 -4 -1z"/>
  <path class="fil0" d="M505 145c-18,1 -35,-18 -36,-19 -3,3 -4,9 -4,12 1,6 4,8 5,12l-4 -2c-3,8 5,17 10,19 -3,0 -2,-1 -4,1 1,5 5,9 9,11 2,1 4,1 5,3 -3,1 -5,3 -10,4 -4,1 -10,1 -13,2 1,3 2,3 6,5 28,13 62,-1 72,-32 2,-7 2,-12 3,-18 1,-4 9,-7 9,-11l-7 1c2,-3 4,-5 4,-9 -5,1 -9,6 -14,3 -4,-3 -7,-5 -15,-4 -11,1 -16,11 -16,22z"/>
  <path class="fil0" d="M1033 171c2,0 3,-1 4,-2 2,-1 2,-2 2,-3l5 0 0 0c0,2 -1,4 -3,6 -3,2 -5,3 -8,3 -4,0 -7,-1 -9,-4 -2,-3 -3,-6 -3,-10l0 -1c0,-4 1,-7 3,-10 2,-2 5,-4 9,-4 2,0 4,1 6,2 2,0 3,1 4,3l0 6 -4 0 -1 -5c0,0 -1,-1 -2,-1 -1,0 -2,-1 -3,-1 -3,0 -5,1 -6,3 -1,2 -1,4 -1,7l0 1c0,3 0,5 1,7 1,2 3,3 6,3zm16 -11c0,-4 1,-7 3,-10 2,-2 5,-4 9,-4 4,0 7,2 9,4 2,3 3,6 3,10l0 1c0,4 -1,7 -3,10 -2,3 -5,4 -9,4 -4,0 -7,-1 -9,-4 -2,-3 -3,-6 -3,-10l0 -1zm5 1c0,3 0,5 1,7 2,2 3,3 6,3 2,0 4,-1 5,-3 1,-2 2,-4 2,-7l0 -1c0,-2 -1,-5 -2,-7 -1,-2 -3,-3 -5,-3 -3,0 -4,1 -6,3 -1,2 -1,5 -1,7l0 1zm42 10c-1,1 -2,2 -3,3 -2,0 -3,1 -5,1 -3,0 -6,-1 -8,-4 -1,-2 -2,-5 -2,-9l0 -1c0,-4 1,-8 2,-11 2,-2 5,-4 8,-4 2,0 3,1 5,1 1,1 2,2 3,3l0 -11 -4 -1 0 -3 4 0 5 0 0 35 4 1 0 3 -9 0 0 -3zm-13 -9c0,2 0,5 1,6 1,2 3,3 6,3 1,0 2,-1 3,-1 1,-1 2,-2 3,-3l0 -13c-1,-1 -2,-2 -3,-3 -1,0 -2,-1 -3,-1 -3,0 -5,1 -6,3 -1,2 -1,5 -1,8l0 1zm38 13c-4,0 -7,-1 -9,-4 -2,-3 -3,-6 -3,-10l0 -1c0,-4 1,-7 3,-10 2,-2 5,-4 8,-4 4,0 7,2 9,4 2,2 3,5 3,9l0 3 -18 0 0 0c0,3 0,5 2,6 1,2 3,3 5,3 2,0 3,0 5,-1 1,0 2,-1 3,-2l2 3c-1,1 -2,2 -4,3 -2,0 -4,1 -6,1zm-1 -25c-1,0 -3,1 -4,2 -1,2 -2,4 -2,6l0 0 13 0 0 -1c0,-2 -1,-3 -2,-5 -1,-1 -3,-2 -5,-2zm16 32l4 -1 0 -30 -4 -1 0 -3 8 0 1 3c1,-1 2,-2 3,-3 1,0 3,-1 5,-1 3,0 6,2 7,4 2,3 3,7 3,11l0 1c0,4 -1,7 -3,9 -1,3 -4,4 -7,4 -2,0 -4,0 -5,-1 -1,-1 -2,-1 -3,-3l0 10 4 1 0 3 -13 0 0 -3zm22 -21c0,-3 0,-6 -2,-8 -1,-2 -3,-3 -5,-3 -1,0 -3,1 -4,1 -1,1 -1,2 -2,3l0 13c1,2 1,2 2,3 1,1 3,1 4,1 2,0 4,-1 5,-3 2,-1 2,-4 2,-6l0 -1zm22 14c-3,0 -7,-1 -9,-4 -2,-3 -3,-6 -3,-10l0 -1c0,-4 1,-7 3,-10 3,-2 5,-4 9,-4 3,0 6,2 8,4 2,2 3,5 3,9l0 3 -18 0 0 0c0,3 1,5 2,6 1,2 3,3 5,3 2,0 3,0 5,-1 1,0 2,-1 3,-2l2 3c-1,1 -2,2 -4,3 -1,0 -3,1 -6,1zm0 -25c-2,0 -4,1 -5,2 -1,2 -2,4 -2,6l0 0 13 0 0 -1c0,-2 -1,-3 -2,-5 -1,-1 -2,-2 -4,-2zm15 21l4 -1 0 -19 -4 -1 0 -3 8 0 1 4c1,-1 2,-3 3,-3 2,-1 3,-2 5,-2 3,0 5,1 7,3 1,2 2,4 2,8l0 13 4 1 0 3 -13 0 0 -3 4 -1 0 -13c0,-2 0,-4 -1,-5 -1,-1 -3,-2 -5,-2 -1,0 -2,1 -3,2 -1,0 -2,1 -3,2l0 16 4 1 0 3 -13 0 0 -3zm40 3l-5 0 0 -5 5 0 0 5zm6 -3l5 -1 0 -19 -5 -1 0 -3 10 0 0 23 4 1 0 3 -14 0 0 -3zm10 -31l-5 0 0 -5 5 0 0 5zm7 20c0,-4 2,-7 4,-10 2,-2 5,-4 9,-4 3,0 6,2 9,4 2,3 3,6 3,10l0 1c0,4 -1,7 -3,10 -3,3 -6,4 -9,4 -4,0 -7,-1 -9,-4 -2,-3 -4,-6 -4,-10l0 -1zm5 1c0,3 1,5 2,7 1,2 3,3 6,3 2,0 4,-1 5,-3 1,-2 2,-4 2,-7l0 -1c0,-2 -1,-5 -2,-7 -1,-2 -3,-3 -5,-3 -3,0 -5,1 -6,3 -1,2 -2,5 -2,7l0 1zm26 16l-4 0 16 -40 4 0 -16 40zm37 -3c0,0 0,-1 0,-2 0,0 0,-1 0,-1 -1,1 -3,2 -4,3 -1,0 -3,1 -5,1 -2,0 -5,-1 -6,-2 -2,-2 -2,-4 -2,-6 0,-3 1,-5 3,-6 2,-2 5,-2 8,-2l6 0 0 -3c0,-2 -1,-3 -2,-4 -1,-1 -2,-2 -4,-2 -1,0 -3,1 -3,1 -1,0 -2,1 -3,1l0 3 -4 0 0 -5c1,-1 3,-2 4,-3 2,0 4,-1 6,-1 3,0 6,1 8,3 2,1 3,4 3,7l0 13c0,0 0,0 0,1 0,0 0,0 0,1l2 0 0 3 -7 0zm-8 -3c2,0 3,-1 5,-2 1,0 2,-1 3,-2l0 -5 -6 0c-2,0 -3,1 -5,2 -1,0 -1,2 -1,3 0,1 0,2 1,3 0,0 2,1 3,1zm19 -21l0 -3 8 0 1 4c1,-1 2,-3 3,-3 1,-1 2,-2 4,-2 0,0 0,0 1,1 0,0 1,0 1,0l-1 4 -3 0c-1,0 -2,0 -3,1 -1,1 -2,2 -2,3l0 15 4 1 0 3 -13 0 0 -3 4 -1 0 -19 -4 -1zm20 21l4 -1 0 -31 -4 -1 0 -3 9 0 0 16c1,-2 2,-3 4,-3 1,-1 2,-2 4,-2 3,0 5,1 7,3 2,2 2,5 2,8l0 13 4 1 0 3 -13 0 0 -3 4 -1 0 -13c0,-2 0,-4 -1,-5 -1,-1 -2,-2 -4,-2 -2,0 -3,1 -4,1 -1,1 -2,2 -3,3l0 16 4 1 0 3 -13 0 0 -3zm52 3c0,0 0,-1 0,-2 -1,0 -1,-1 -1,-1 -1,1 -2,2 -3,3 -2,0 -3,1 -5,1 -3,0 -5,-1 -6,-2 -2,-2 -3,-4 -3,-6 0,-3 2,-5 4,-6 2,-2 5,-2 8,-2l5 0 0 -3c0,-2 0,-3 -1,-4 -1,-1 -3,-2 -4,-2 -2,0 -3,1 -4,1 -1,0 -1,1 -2,1l-1 3 -3 0 0 -5c1,-1 2,-2 4,-3 2,0 4,-1 6,-1 3,0 6,1 7,3 2,1 3,4 3,7l0 13c0,0 0,0 0,1 0,0 0,0 0,1l2 0 0 3 -6 0zm-8 -3c2,0 3,-1 4,-2 2,0 3,-1 3,-2l0 -5 -5 0c-2,0 -4,1 -5,2 -1,0 -2,2 -2,3 0,1 1,2 2,3 0,0 1,1 3,1zm18 0l4 -1 0 -19 -4 -1 0 -3 8 0 1 4c0,-2 2,-3 3,-4 1,0 3,-1 5,-1 2,0 3,1 4,2 2,1 3,2 3,3 1,-1 2,-2 4,-3 1,-1 3,-2 5,-2 3,0 5,1 6,3 2,2 3,5 3,9l0 12 4 1 0 3 -13 0 0 -3 4 -1 0 -12c0,-3 -1,-5 -2,-6 -1,-1 -2,-2 -4,-2 -1,0 -3,1 -4,2 -1,2 -2,3 -2,5l0 13 4 1 0 3 -13 0 0 -3 4 -1 0 -12c0,-3 0,-5 -1,-6 -1,-1 -3,-2 -4,-2 -2,0 -3,1 -4,1 -1,1 -2,2 -2,3l0 16 4 1 0 3 -13 0 0 -3zm75 -21l-2 1 -10 27c-1,2 -2,4 -3,5 -2,2 -3,2 -6,2 0,0 -1,0 -1,0 -1,0 -1,0 -2,0l1 -4c0,0 0,0 1,0 1,0 1,0 1,0 1,0 2,0 3,-1 0,-1 1,-2 1,-3l2 -3 -9 -23 -3 -1 0 -3 11 0 0 3 -3 1 5 13 1 4 0 0 6 -17 -4 -1 0 -3 11 0 0 3zm3 21l4 -1 0 -19 -4 -1 0 -3 8 0 1 4c1,-2 2,-3 3,-4 2,0 3,-1 5,-1 2,0 3,1 5,2 1,1 2,2 3,3 0,-1 2,-2 3,-3 1,-1 3,-2 5,-2 3,0 5,1 7,3 1,2 2,5 2,9l0 12 4 1 0 3 -13 0 0 -3 4 -1 0 -12c0,-3 0,-5 -1,-6 -1,-1 -3,-2 -4,-2 -2,0 -4,1 -5,2 -1,2 -1,3 -2,5l0 13 5 1 0 3 -14 0 0 -3 5 -1 0 -12c0,-3 -1,-5 -2,-6 -1,-1 -2,-2 -4,-2 -2,0 -3,1 -4,1 -1,1 -2,2 -2,3l0 16 4 1 0 3 -13 0 0 -3zm50 -21l0 -3 8 0 1 4c1,-1 2,-3 3,-3 1,-1 2,-2 4,-2 0,0 0,0 1,1 0,0 0,0 1,0l-1 4 -3 0c-1,0 -2,0 -3,1 -1,1 -2,2 -2,3l0 15 4 1 0 3 -13 0 0 -3 4 -1 0 -19 -4 -1z"/>
  <path class="fil0" d="M932 172l27 19 0 -17 -15 -10 -12 8zm-3 -6l9 -6 -9 -6 0 12 0 0zm37 25l27 -19 -12 -8 -15 10 0 17 0 0zm-3 -23l12 -8 -12 -8 -13 8 13 8zm-19 -12l15 -10 0 -17 -27 19 12 8zm44 4l8 6 0 -12 -8 6zm-7 -4l12 -8 -27 -19 0 17 15 10zm22 -8l0 24c0,2 0,3 -1,3l-37 25c-1,1 -2,1 -2,1 -1,0 -2,0 -2,-1l-38 -25c-1,0 -1,-1 -1,-3l0 -24c0,-2 0,-3 1,-3l38 -25c0,0 1,-1 2,-1 0,0 1,0 2,1l37 25c1,0 1,1 1,3z"/>
  <g id="_1612878336544">
   <path class="fil0" d="M36 111c-9,1 -14,1 -20,5 -1,1 -3,2 -3,3 -4,2 -6,7 -8,11 -2,6 -1,15 -1,22 0,9 -1,17 0,25 0,11 2,19 10,26 8,6 20,6 31,6 8,0 16,0 24,0 10,-1 16,-1 23,-7 3,-3 6,-8 7,-12 2,-6 2,-15 2,-22 0,-8 0,-17 0,-25 0,-8 -1,-13 -5,-19 0,-1 -1,-3 -2,-4 -1,-1 -2,-2 -3,-3 -8,-6 -21,-6 -31,-6 -8,0 -16,0 -24,0zm1 9c-7,1 -12,0 -17,4 -9,6 -8,20 -8,32 0,6 0,13 0,20 1,6 1,11 4,16 6,9 20,8 32,8 6,0 13,0 20,0 6,0 12,0 16,-4 4,-2 7,-6 8,-12 1,-7 0,-32 0,-39 0,-6 0,-12 -3,-17 -3,-4 -7,-6 -13,-7 -6,-1 -32,-1 -39,-1z"/>
   <path class="fil0" d="M50 135c-13,2 -24,13 -23,28 2,13 13,24 28,22 13,-1 24,-13 22,-28 -1,-13 -13,-23 -27,-22zm1 9c-9,1 -16,8 -15,18 1,8 8,15 18,14 8,-1 15,-8 14,-18 0,-8 -8,-15 -17,-14z"/>
   <path class="fil0" d="M78 129c-3,0 -5,3 -5,7 2,7 13,5 12,-3 -1,-3 -4,-5 -7,-4z"/>
  </g>
  <path class="fil1" d="M52 39l-12 0 -2 -8c-1,-1 -3,-2 -5,-3 -2,-1 -4,-1 -6,-1 -3,0 -5,1 -7,2 -2,2 -3,3 -3,6 0,2 1,3 3,4 1,2 5,3 10,4 8,2 14,4 18,7 4,3 6,8 6,13 0,6 -2,11 -8,15 -5,3 -11,5 -20,5 -5,0 -9,0 -14,-2 -4,-1 -8,-4 -11,-6l0 -15 12 0 3 8c1,1 2,2 4,2 2,1 4,1 6,1 3,0 6,-1 8,-2 2,-1 3,-3 3,-5 0,-2 -1,-4 -3,-5 -2,-2 -5,-3 -11,-4 -7,-2 -13,-4 -17,-7 -4,-3 -6,-7 -6,-13 0,-5 2,-10 7,-14 4,-4 11,-6 19,-6 5,0 10,1 15,2 4,1 8,3 11,5l0 17z"/>
  <path id="1" class="fil1" d="M88 0l0 16 12 0 0 13 -12 0 0 33c0,3 1,5 2,6 1,1 2,1 4,1 1,0 2,0 3,0 1,0 2,0 3,0l2 12c-2,1 -4,2 -6,2 -2,0 -4,0 -6,0 -6,0 -11,-1 -14,-5 -4,-3 -5,-9 -5,-16l0 -33 -10 0 0 -13 10 0 0 -16 17 0z"/>
  <path id="2" class="fil1" d="M151 82c-1,-1 -1,-2 -2,-3 0,-2 0,-3 -1,-4 -2,3 -4,5 -7,6 -3,2 -7,2 -11,2 -6,0 -11,-1 -15,-5 -4,-4 -6,-8 -6,-14 0,-7 3,-11 8,-15 5,-3 12,-5 21,-5l10 0 0 -6c0,-3 -1,-6 -3,-8 -2,-1 -5,-2 -8,-2 -2,0 -4,0 -6,1 -1,0 -3,1 -4,1l-1 7 -13 0 0 -14c3,-2 7,-4 11,-6 4,-1 9,-2 14,-2 8,0 15,2 20,6 5,4 7,10 7,17l0 27c0,1 0,2 0,3 0,1 1,2 1,3l5 0 0 11 -20 0zm-16 -12c3,0 5,0 7,-2 3,-1 4,-2 6,-4l0 -10 -10 0c-3,0 -6,1 -8,3 -2,1 -3,4 -3,6 0,2 1,4 2,5 2,1 4,2 6,2z"/>
  <path id="3" class="fil1" d="M244 27l-6 1 -24 64c-2,5 -4,9 -8,12 -3,3 -8,5 -14,5 -2,0 -3,-1 -4,-1 -2,0 -3,0 -5,-1l2 -13c1,0 1,0 2,0 0,1 1,1 1,1 3,0 6,-1 7,-3 2,-1 3,-3 4,-5l2 -5 -21 -54 -6 -1 0 -11 32 0 0 11 -7 1 9 26 1 5 0 0 10 -31 -7 -1 0 -11 32 0 0 11z"/>
  <path id="4" class="fil1" d="M311 70c4,0 6,-1 8,-3 2,-2 3,-4 3,-8l16 0 0 1c0,6 -2,12 -7,17 -6,4 -12,6 -20,6 -9,0 -17,-3 -22,-9 -6,-6 -8,-14 -8,-24l0 -2c0,-10 2,-17 8,-24 5,-6 13,-9 23,-9 6,0 10,1 15,2 4,2 7,4 10,7l0 18 -14 0 -3 -11c-1,-1 -2,-1 -3,-2 -2,0 -3,0 -5,0 -5,0 -8,1 -10,5 -2,4 -3,8 -3,14l0 2c0,6 0,11 2,14 2,4 6,6 10,6z"/>
  <path id="5" class="fil1" d="M346 48c0,-9 3,-17 8,-24 6,-6 14,-9 23,-9 10,0 18,3 23,9 6,7 8,15 8,24l0 2c0,10 -2,18 -8,24 -5,6 -13,9 -23,9 -9,0 -17,-3 -23,-9 -5,-6 -8,-14 -8,-24l0 -2zm18 2c0,6 1,11 3,14 2,4 6,6 10,6 5,0 8,-2 10,-6 3,-4 4,-8 4,-14l0 -2c0,-5 -1,-10 -4,-14 -2,-4 -5,-5 -10,-5 -4,0 -8,1 -10,5 -2,4 -3,9 -3,14l0 2z"/>
  <path id="6" class="fil1" d="M415 71l9 -2 0 -40 -10 -2 0 -11 26 0 1 10c2,-4 5,-6 8,-8 3,-2 7,-3 11,-3 6,0 12,2 15,6 4,4 6,11 6,20l0 28 9 2 0 11 -34 0 0 -11 7 -2 0 -28c0,-5 -1,-8 -3,-10 -1,-1 -4,-2 -8,-2 -2,0 -4,0 -6,1 -2,1 -3,2 -5,4l0 35 8 2 0 11 -34 0 0 -11z"/>
  <path id="7" class="fil1" d="M494 71l9 -2 0 -40 -10 -2 0 -11 26 0 1 10c2,-4 5,-6 8,-8 3,-2 7,-3 11,-3 7,0 12,2 16,6 3,4 5,11 5,20l0 28 9 2 0 11 -34 0 0 -11 7 -2 0 -28c0,-5 -1,-8 -2,-10 -2,-1 -5,-2 -8,-2 -3,0 -5,0 -7,1 -2,1 -3,2 -5,4l0 35 8 2 0 11 -34 0 0 -11z"/>
  <path id="8" class="fil1" d="M605 83c-9,0 -17,-3 -23,-9 -5,-6 -8,-14 -8,-23l0 -2c0,-10 3,-18 8,-25 5,-6 13,-9 22,-9 9,0 15,3 20,8 5,5 8,13 8,22l0 9 -40 0 0 1c1,4 2,8 5,10 2,3 6,5 10,5 4,0 7,-1 10,-2 2,0 5,-2 8,-3l5 11c-3,2 -6,4 -10,5 -5,2 -9,2 -15,2zm-1 -54c-4,0 -6,1 -8,3 -2,3 -3,6 -4,10l0 1 22 0 0 -2c0,-4 -1,-7 -2,-9 -2,-2 -5,-3 -8,-3z"/>
  <path id="9" class="fil1" d="M671 70c3,0 6,-1 8,-3 2,-2 2,-4 2,-8l17 0 0 1c0,6 -3,12 -8,17 -5,4 -11,6 -19,6 -10,0 -17,-3 -23,-9 -5,-6 -8,-14 -8,-24l0 -2c0,-10 3,-17 8,-24 6,-6 14,-9 24,-9 5,0 10,1 14,2 4,2 8,4 11,7l0 18 -14 0 -3 -11c-1,-1 -2,-1 -4,-2 -1,0 -2,0 -4,0 -5,0 -9,1 -11,5 -2,4 -3,8 -3,14l0 2c0,6 1,11 3,14 2,4 5,6 10,6z"/>
  <path id="10" class="fil1" d="M732 0l0 16 12 0 0 13 -12 0 0 33c0,3 1,5 2,6 1,1 2,1 4,1 1,0 2,0 3,0 1,0 2,0 3,0l2 12c-2,1 -4,2 -6,2 -2,0 -4,0 -7,0 -6,0 -10,-1 -14,-5 -3,-3 -5,-9 -5,-16l0 -33 -9 0 0 -13 9 0 0 -16 18 0z"/>
 </g>
</svg>
